<?xml version="1.0" standalone="no"?>
<svg viewBox="0 0 200 200" xmlns="http://www.w3.org/2000/svg">
  <path fill="#F2F4F8" d="M34.3,-58.8C45.7,-52.8,57.1,-46.1,66.6,-36.2C76.2,-26.3,84,-13.2,84.1,0.1C84.2,13.3,76.6,26.6,67.8,37.8C59,49.1,49,58.4,37.5,66.9C26,75.4,13,83.1,-1.7,86C-16.4,89,-32.8,87.1,-42.6,77.7C-52.4,68.2,-55.5,51,-60.2,36.8C-64.8,22.6,-70.9,11.3,-74.7,-2.2C-78.5,-15.7,-79.9,-31.3,-74.5,-44.1C-69,-56.9,-56.7,-66.9,-43.1,-71.7C-29.6,-76.5,-14.8,-76.2,-1.7,-73.3C11.4,-70.4,22.9,-64.9,34.3,-58.8Z" transform="translate(100 100)" />
</svg>
